HIERARCHY
ROOT Hips
{
	OFFSET 0.00000 0.00000 0.00000
	CHANNELS 6 Xposition Yposition Zposition Yrotation Zrotation Xrotation 
	JOINT Lumbar
	{
		OFFSET 0 0 0
		CHANNELS 3 Zrotation Xrotation Yrotation
		JOINT Neck
		{
			OFFSET 0.00 0.2701 0.00
			CHANNELS 3 Zrotation Xrotation Yrotation
			End Site
			{
				OFFSET 0.00 0.1379 0.00
			}
		}
		JOINT RightShoulder
		{
			OFFSET 0.0119 0.2289 0.1181
			CHANNELS 3 Zrotation Xrotation Yrotation
			JOINT RightElbow
			{
				OFFSET 0.00 -0.1475 0.00
				CHANNELS 2 Zrotation Yrotation
				JOINT RightWrist
				{
					OFFSET 0.00 -0.1605 0.00
					CHANNELS 2 Zrotation Xrotation
					End Site
					{
						OFFSET 0.0040 -0.1068 0.0006
					}
				}
			}
		}
		JOINT LeftShoulder
		{
			OFFSET 0.0119 0.2289 -0.1181
			CHANNELS 3 Zrotation Xrotation Yrotation
			JOINT LeftElbow
			{
				OFFSET 0.00 -0.1475 0.00
				CHANNELS 2 Zrotation Yrotation
				JOINT LeftWrist
				{
					OFFSET 0.00 -0.1605 0.00
					CHANNELS 2 Zrotation Xrotation
					End Site
					{
						OFFSET 0.0040 -0.1068 -0.0006
					}
				}
			}
		}
	}
	JOINT RightHip
	{
		OFFSET 0.0316 -0.0424 0.0458
		CHANNELS 3 Zrotation Xrotation Yrotation
		JOINT RightKnee
		{
			OFFSET 0.00 -0.2438 0.00
			CHANNELS 1 Zrotation
			JOINT RightAnkle
			{
				OFFSET 0.00 -0.2449 0.00
				CHANNELS 3 Zrotation Xrotation Yrotation
				End Site
				{
					OFFSET 0.1237 -0.0542 0.0051
				}
			}
		}
	}
	JOINT LeftHip
	{
		OFFSET 0.0316 -0.0424 -0.0458
		CHANNELS 3 Zrotation Xrotation Yrotation
		JOINT LeftKnee
		{
			OFFSET 0.00 -0.2438 0.00
			CHANNELS 1 Zrotation
			JOINT LeftAnkle
			{
				OFFSET 0.00 -0.2449 0.00
				CHANNELS 3 Zrotation Xrotation Yrotation
				End Site
				{
					OFFSET 0.1237 -0.0542 -0.0051
				}
			}
		}
	}
}
MOTION
Frames: 22
Frame Time: 0.02
0.47774 0.07146 -0.30554 13.89458 -77.00031 -4.66611 -13.65559 7.51258 2.45806 17.18297 -18.55555 -0.83074 111.88331 5.56052 43.6026 5.3423 68.73437 -6.71959 3.07407 103.84702 -1.07682 -41.67419 12.58436 -80.53388 -1.63707 3.9391 110.37858 -19.42389 8.51228 -47.6534 -6.40919 -3.36302 -2.35357 120.31316 4.99517 17.63321 -56.37855 -6.6614 1.47214 1.37062
0.47731 0.07185 -0.30501 13.50392 -76.66369 -5.07217 -13.09633 7.48703 2.42255 17.16329 -18.34682 -0.83074 110.5387 5.70831 42.65154 5.42768 70.39017 -6.67263 2.76381 102.29053 -1.05411 -40.40646 13.11098 -80.44357 -1.54047 4.04666 109.7898 -19.36575 8.19364 -47.27462 -6.4076 -3.3004 -2.32595 119.94974 4.81547 16.99813 -56.19016 -6.65181 1.53809 1.40594
0.4766 0.0722 -0.30433 12.87924 -76.31053 -5.70519 -12.36559 7.42888 2.37985 17.16908 -18.12263 -0.83074 108.95834 5.90789 41.08509 5.54757 72.82052 -6.6627 2.45253 100.4939 -1.00969 -38.89636 13.72891 -80.31842 -1.39517 4.14802 109.17652 -19.23071 7.89643 -46.8574 -6.40666 -3.22823 -2.29581 119.61235 4.64626 16.24133 -56.01234 -6.64217 1.61457 1.44721
0.47603 0.07258 -0.30372 12.36038 -75.95231 -6.22997 -11.70969 7.38169 2.33682 17.16478 -17.91297 -0.83074 107.4693 6.08668 39.84377 5.66379 74.81224 -6.63864 2.14647 98.78929 -0.96572 -37.5202 14.31333 -80.22008 -1.27531 4.25244 108.55926 -19.12828 7.58207 -46.45138 -6.40575 -3.16088 -2.26676 119.24325 4.47386 15.53528 -55.82095 -6.63212 1.68722 1.4862
0.47537 0.07293 -0.30308 11.84525 -75.645 -6.77599 -11.06737 7.35162 2.30722 17.15388 -17.67302 -0.83074 106.04264 6.25473 38.43242 5.72862 77.15117 -6.60466 1.81881 97.15108 -0.96108 -36.03508 14.86668 -80.0778 -1.14216 4.35743 108.00112 -19.03755 7.29482 -46.06933 -6.4033 -3.09126 -2.2378 118.95431 4.29199 14.84549 -55.66398 -6.62366 1.75627 1.52358
0.47485 0.07333 -0.30248 11.26728 -75.22804 -7.33079 -10.35473 7.27768 2.24951 17.16249 -17.49009 -0.83074 104.43114 6.45551 37.21944 5.9096 78.96267 -6.59738 1.53632 95.31963 -0.8705 -34.72449 15.50506 -80.01715 -1.02547 4.45843 107.31523 -18.90302 6.95919 -45.62891 -6.40444 -3.02431 -2.20819 118.50538 4.1343 14.09568 -55.43874 -6.61215 1.83496 1.56556
0.47476 0.0739 -0.30201 10.56033 -74.51808 -7.86618 -9.50381 7.09247 2.10485 17.22339 -17.49117 -0.83074 102.3747 6.75342 36.72233 6.39513 79.06887 -6.68235 1.38119 93.01524 -0.5358 -33.93249 16.36056 -80.19912 -0.95805 4.55871 106.28897 -18.67199 6.46837 -45.03998 -6.41325 -2.96578 -2.17638 117.61544 4.02945 13.1897 -55.02325 -6.59002 1.94017 1.61991
0.47481 0.07452 -0.30157 9.80062 -73.69732 -8.40027 -8.58585 6.8639 1.93434 17.3019 -17.54595 -0.83074 100.1399 7.07864 36.44163 6.998 78.62983 -6.78829 1.27167 90.52538 -0.1174 -33.3299 17.29747 -80.46262 -0.9097 4.65346 105.13404 -18.39825 5.93205 -44.39342 -6.426 -2.9106 -2.14425 116.56238 3.95062 12.23103 -54.53887 -6.56522 2.0543 1.6785
0.47479 0.07512 -0.30111 9.07252 -72.92434 -8.92777 -7.68918 6.65375 1.78301 17.3699 -17.56136 -0.83074 97.98209 7.37926 36.04519 7.55195 78.48204 -6.86615 1.13953 88.11981 0.25465 -32.65598 18.19343 -80.68285 -0.85835 4.74482 104.03529 -18.14029 5.42703 -43.77156 -6.43835 -2.85463 -2.1129 115.58062 3.86796 11.31049 -54.08587 -6.54311 2.16261 1.73436
0.47478 0.0757 -0.30067 8.30243 -72.16298 -9.49473 -6.82404 6.4475 1.59996 17.45097 -17.63962 -0.83074 95.83213 7.73467 35.69393 8.08769 78.18024 -7.02194 1.01398 85.70491 0.66197 -31.91007 19.10845 -80.92808 -0.78341 4.86079 102.94747 -17.89526 4.8758 -43.15468 -6.44497 -2.7949 -2.07862 114.61374 3.75314 10.32765 -53.63299 -6.5148 2.27848 1.79367
0.4748 0.07634 -0.3002 7.61235 -71.34957 -9.97465 -5.88109 6.22376 1.47705 17.50666 -17.59963 -0.83074 93.6278 7.97984 35.31687 8.6898 78.05633 -7.02198 0.88722 83.2696 1.01611 -31.36369 20.00297 -81.14114 -0.76025 4.92442 101.80388 -17.6138 4.41231 -42.51416 -6.46431 -2.74434 -2.05062 113.57414 3.70975 9.46133 -53.16323 -6.4987 2.3809 1.84689
0.47489 0.0771 -0.29966 7.1398 -70.43524 -10.22712 -4.72707 5.95798 1.52537 17.50504 -17.22263 -0.83074 91.30825 7.93016 34.74116 9.43779 78.58226 -6.56872 0.73169 80.81618 1.19746 -31.31164 20.81179 -81.24465 -0.89741 4.8433 100.56235 -17.24609 4.17855 -41.8235 -6.51897 -2.71462 -2.03813 112.39695 3.87154 8.95128 -52.66512 -6.51781 2.44125 1.88085
0.47502 0.0779 -0.29908 6.75373 -69.46978 -10.38862 -3.50023 5.67709 1.63528 17.47406 -16.72439 -0.83074 88.9434 7.76525 34.14918 10.25006 79.29728 -5.96108 0.57602 78.35163 1.32359 -31.45714 21.5987 -81.31324 -1.08233 4.70996 99.26504 -16.84331 4.03764 -41.11111 -6.58605 -2.69461 -2.03226 111.14802 4.1019 8.55763 -52.15217 -6.54913 2.48814 1.90872
0.47514 0.07869 -0.29853 6.34005 -68.51719 -10.58231 -2.31594 5.40607 1.71786 17.44508 -16.28002 -0.83075 86.60567 7.64231 33.61622 11.03831 79.90554 -5.43591 0.42977 75.89753 1.47813 -31.52006 22.40081 -81.39853 -1.23094 4.60166 97.97682 -16.45377 3.87136 -40.40806 -6.64672 -2.67285 -2.02473 109.91616 4.29108 8.09615 -51.64495 -6.57433 2.54307 1.94033
0.47521 0.07948 -0.29796 5.87533 -67.60339 -10.81448 -1.08949 5.12069 1.79699 17.46423 -15.84267 -0.83075 84.23221 7.56457 32.87152 11.80838 80.58395 -4.85994 0.24565 73.41219 1.62046 -31.55856 23.18253 -81.4833 -1.44108 4.48783 96.75125 -16.07209 3.63796 -39.70491 -6.71089 -2.64063 -2.01187 108.743 4.52224 7.69268 -51.13929 -6.6019 2.59053 1.96819
0.47541 0.08027 -0.2974 5.53779 -66.59947 -10.94521 0.06583 4.86239 1.89797 17.37639 -15.36123 -0.83075 81.92696 7.36455 32.56242 12.63051 81.16723 -4.35229 0.13974 70.99404 1.77547 -31.69302 24.00192 -81.55963 -1.53511 4.37292 95.38551 -15.66877 3.56012 -38.99797 -6.77051 -2.63162 -2.0112 107.43418 4.68346 7.20063 -50.62815 -6.62741 2.6498 2.00211
0.47596 0.08105 -0.29686 5.53457 -65.34763 -10.81496 1.00296 4.68151 2.04666 16.99601 -14.7873 -0.83075 79.80356 6.8578 33.44909 13.57711 81.45126 -4.07587 0.24959 68.74606 1.96632 -32.03844 24.91738 -81.62225 -1.28875 4.27058 93.62981 -15.19221 3.95161 -38.28225 -6.81578 -2.69192 -2.04701 105.75535 4.62181 6.40382 -50.10203 -6.64485 2.7484 2.05615
0.47664 0.08183 -0.29632 5.65603 -64.00936 -10.58637 1.8659 4.52899 2.21476 16.50961 -14.17306 -0.83075 77.75451 6.23118 34.77493 14.57459 81.63409 -3.8727 0.43773 66.57066 2.17393 -32.4737 25.87355 -81.67695 -0.92536 4.16871 91.73815 -14.69873 4.48723 -37.56414 -6.85584 -2.77412 -2.0942 103.9453 4.4901 5.52103 -49.57167 -6.65968 2.85851 2.11604
0.47727 0.0826 -0.29579 5.71766 -62.7191 -10.40477 2.76567 4.3642 2.37262 16.07452 -13.57721 -0.83075 75.68393 5.65764 35.90696 15.54967 81.8593 -3.63252 0.59023 64.37457 2.3816 -32.87068 26.81945 -81.73421 -0.62072 4.06452 89.92094 -14.22858 4.91326 -36.85014 -6.89739 -2.8409 -2.13307 102.2052 4.39831 4.69742 -49.04614 -6.67532 2.96125 2.17209
0.47788 0.0834 -0.29524 5.7949 -61.39107 -10.21011 3.65686 4.19558 2.53905 15.62546 -12.9766 -0.83075 73.56009 5.08647 37.01755 16.52138 82.10512 -3.40196 0.74392 62.12515 2.5544 -33.26413 27.73002 -81.79478 -0.29407 3.96639 88.05052 -13.69401 5.51948 -36.12376 -6.94291 -2.92985 -2.18476 100.42064 4.27313 3.78891 -48.5087 -6.693 3.0732 2.23325
0.47855 0.08414 -0.29472 5.86905 -60.12069 -10.02073 4.54485 4.04271 2.6909 15.18038 -12.37823 -0.83075 71.5652 4.48279 38.27304 17.51467 82.28271 -3.17165 0.91258 60.00535 2.80524 -33.68338 28.72393 -81.84689 0.0149 3.85768 86.25656 -13.28649 5.79491 -35.42141 -6.97896 -2.97926 -2.21325 98.69633 4.20206 3.04036 -47.99412 -6.70559 3.16808 2.28481
0.47934 0.08469 -0.29427 5.89558 -59.04178 -9.86818 5.4638 3.91898 2.80218 14.77513 -11.79367 -0.83075 69.9113 3.8241 39.85701 18.52629 82.2868 -2.9167 1.11357 58.21664 3.262 -34.15334 29.94045 -81.87888 0.24912 3.70868 84.7331 -13.2662 5.01899 -34.7995 -6.9882 -2.90033 -2.16698 97.1905 4.27814 2.70843 -47.55417 -6.70536 3.22015 2.31215
